<svg xmlns="http://www.w3.org/2000/svg" xmlns:xlink="http://www.w3.org/1999/xlink" viewBox="0,0,256,256" width="128px" height="128px"><g fill="none" fill-rule="nonzero" stroke="none" stroke-width="1" stroke-linecap="butt" stroke-linejoin="miter" stroke-miterlimit="10" stroke-dasharray="" stroke-dashoffset="0" font-family="none" font-weight="none" font-size="none" text-anchor="none" style="mix-blend-mode: normal"><g transform="scale(2,2)"><path d="M12,34l20,-20h64l20,20" fill="#ffffff"></path><rect x="12" y="34" width="104" height="80" fill="#ffffff"></rect><path d="M118.1,31.9l-20,-20c-0.5,-0.6 -1.3,-0.9 -2.1,-0.9h-64c-0.8,0 -1.6,0.3 -2.1,0.9l-20,20c-0.6,0.5 -0.9,1.3 -0.9,2.1v80c0,1.7 1.3,3 3,3h104c1.7,0 3,-1.3 3,-3v-80c0,-0.8 -0.3,-1.6 -0.9,-2.1zM108.8,31h-41.8v-14h27.8zM33.2,17h27.8v14h-41.8zM113,111h-98v-74h98z" fill="#000000"></path></g></g></svg>