<svg xmlns="http://www.w3.org/2000/svg" xmlns:xlink="http://www.w3.org/1999/xlink" width="168" height="108" viewBox="0 0 168 108">
    <defs>
        <rect id="a" width="160" height="100" rx="8"/>
        <filter id="b" width="107.5%" height="112%" x="-3.8%" y="-6%" filterUnits="objectBoundingBox">
            <feOffset in="SourceAlpha" result="shadowOffsetOuter1"/>
            <feGaussianBlur in="shadowOffsetOuter1" result="shadowBlurOuter1" stdDeviation="2"/>
            <feColorMatrix in="shadowBlurOuter1" values="0 0 0 0 0 0 0 0 0 0 0 0 0 0 0 0 0 0 0.1 0"/>
        </filter>
        <rect id="d" width="160" height="100" rx="4"/>
    </defs>
    <g fill="none" fill-rule="evenodd" transform="translate(4 4)">
        <mask id="c" fill="#fff">
            <use xlink:href="#a"/>
        </mask>
        <use fill="#000" filter="url(#b)" xlink:href="#a"/>
        <use fill="#FFF" xlink:href="#a"/>
        <path fill="#777" d="M28.695 18.33h2.04c.36 0 1.18.02 1.7.51.43.41.48.97.48 1.26 0 .26-.04.56-.22.85-.17.28-.4.42-.56.49.32.05.68.21.92.45.22.22.43.6.43 1.19 0 .67-.26 1.09-.52 1.35-.55.53-1.35.57-1.76.57h-2.51v-6.67zm1.52 1.2v1.51h.25c.21 0 .56-.03.78-.19.14-.1.27-.3.27-.59a.68.68 0 0 0-.26-.56c-.22-.17-.52-.17-.8-.17h-.24zm0 2.65v1.62h.37c.39 0 .86-.01 1.14-.27.14-.13.22-.32.22-.56 0-.27-.11-.45-.21-.54-.27-.25-.79-.25-1.1-.25h-.42zm9.64 2.82l-.5-1.26h-2.52l-.51 1.26h-1.6l2.69-6.67h1.41l2.63 6.67h-1.6zm-2.57-2.44h1.65l-.82-2.24-.83 2.24zm10.53.46c-.59.58-1.13.69-1.53.69-.82 0-1.3-.42-1.44-.56-.3-.29-.58-.78-.58-1.47 0-.64.26-1.18.63-1.54.35-.34.8-.52 1.36-.52.71 0 1.22.35 1.56.71v-1.78c-.65-.28-1.16-.37-1.6-.37-1.04 0-1.9.39-2.49.96a3.48 3.48 0 0 0-1.04 2.51c0 1.07.44 1.95 1.04 2.53.56.55 1.39.97 2.62.97.4 0 .88-.06 1.47-.36v-1.77zm3.57-4.69h-1.54V25h1.54v-2.96l2.39 2.96h1.98l-2.91-3.51 2.7-3.16h-1.88l-2.28 2.78v-2.78zm12.42-.15c1.04 0 1.91.32 2.58.97.63.61 1.04 1.49 1.04 2.52 0 .89-.32 1.8-1.04 2.5-.62.6-1.46.98-2.58.98-1.25 0-2.1-.5-2.6-.98-.64-.6-1.04-1.5-1.04-2.48 0-.96.43-1.93 1.03-2.53.45-.45 1.28-.98 2.61-.98zm-.01 1.42c-.58 0-1.1.21-1.46.57-.29.28-.59.77-.59 1.51 0 .61.2 1.1.61 1.5.43.41.91.55 1.43.55.68 0 1.16-.25 1.48-.57.26-.25.58-.72.58-1.49 0-.69-.28-1.2-.58-1.5a2.14 2.14 0 0 0-1.47-.57zm9.28-1.27h-3.7V25h1.54v-2.78h2v-1.3h-2v-1.29h2.16v-1.3zm8.27 4.27h1.61c-.13.49-.43.75-.48.79-.15.13-.5.36-1.16.36-.51 0-.96-.12-1.35-.52-.28-.28-.56-.77-.56-1.53 0-.62.2-1.19.57-1.58.32-.34.77-.54 1.38-.54.38 0 .72.1 1.02.32.26.19.46.46.59.72l1.39-.75c-.24-.42-.63-.89-1.08-1.19-.62-.41-1.32-.5-1.87-.5-.79 0-1.8.12-2.62.97-.56.57-.96 1.44-.96 2.53 0 1.33.59 2.14.98 2.54.78.8 1.64.93 2.44.93.79 0 1.64-.14 2.38-.91s1.03-2 1.03-2.81v-.07h-3.31v1.24zm5.29-4.27V25h1.54v-6.67h-1.54zm7.53 0h-3.7V25h1.54v-2.78h2v-1.3h-2v-1.29h2.16v-1.3zm5.72 1.3v-1.3h-4.44v1.3h1.44V25h1.54v-5.37h1.46zm9.56 3.39c-.59.58-1.13.69-1.53.69-.82 0-1.3-.42-1.44-.56-.3-.29-.58-.78-.58-1.47 0-.64.26-1.18.63-1.54.35-.34.8-.52 1.36-.52.71 0 1.22.35 1.56.71v-1.78c-.65-.28-1.16-.37-1.6-.37-1.04 0-1.9.39-2.49.96a3.48 3.48 0 0 0-1.04 2.51c0 1.07.44 1.95 1.04 2.53.56.55 1.39.97 2.62.97.4 0 .88-.06 1.47-.36v-1.77zm6.45 1.98l-.5-1.26h-2.52l-.51 1.26h-1.6l2.69-6.67h1.41l2.63 6.67h-1.6zm-2.57-2.44h1.65l-.82-2.24-.83 2.24zm5.72-4.23h2.34c.85 0 1.38.28 1.7.58.28.27.58.75.58 1.49 0 .42-.09.94-.52 1.36-.23.22-.56.42-.93.51l2.05 2.73h-1.88l-1.8-2.63V25h-1.54v-6.67zm1.54 1.2v1.83h.35c.28 0 .66-.03.92-.29.11-.11.25-.32.25-.65 0-.38-.18-.58-.31-.68-.25-.19-.65-.21-.85-.21h-.36zm5.33-1.2h2.11c.88 0 1.81.13 2.63.92.59.57.96 1.35.96 2.39 0 1.05-.36 1.81-.91 2.36-.92.93-2.07 1-2.63 1h-2.16v-6.67zm1.54 1.3v4.07h.41c.32 0 1.02-.03 1.52-.45.36-.3.65-.87.65-1.61 0-.72-.29-1.18-.55-1.44-.5-.5-1.15-.57-1.62-.57h-.41z" mask="url(#c)"/>
        <path fill="#EEE" d="M0 30h160v70H0z" mask="url(#c)"/>
        <path fill="#2D2D2D" d="M21.76 45h1.232v-5.336H21v1.04h.76V45zm6.856-1.04h-1.84l.56-.536c.344-.328.624-.6.856-.92.256-.36.4-.704.4-1.176 0-.552-.208-.992-.496-1.28-.192-.184-.608-.504-1.384-.504-.76 0-1.216.28-1.472.552-.328.344-.512.872-.552 1.336h1.232c0-.208.08-.496.224-.656.104-.112.256-.192.488-.192.208 0 .384.056.488.152a.75.75 0 0 1 .208.528c0 .368-.2.712-.32.904-.168.256-.592.776-.872 1.088L24.536 45h4.08v-1.04zm2.872-2.696a.846.846 0 0 1 .192-.496.673.673 0 0 1 .48-.176c.2 0 .36.072.456.16a.582.582 0 0 1 .176.432.626.626 0 0 1-.2.48c-.176.144-.464.152-.536.152h-.072v.848h.096c.184 0 .464.016.656.168a.662.662 0 0 1 .232.512.767.767 0 0 1-.216.544c-.128.12-.328.184-.536.184-.256 0-.464-.088-.592-.216a1.02 1.02 0 0 1-.256-.6h-1.232c.056.536.288 1.008.592 1.32.472.472 1.04.552 1.56.552.432 0 .952-.048 1.408-.464.376-.344.536-.808.536-1.216 0-.288-.088-.624-.248-.84a1.313 1.313 0 0 0-.608-.432.993.993 0 0 0 .4-.336c.168-.232.216-.464.216-.728 0-.52-.184-.872-.408-1.088-.272-.272-.744-.472-1.4-.472-.44 0-.96.096-1.352.504-.28.288-.48.76-.528 1.208h1.184zm8-1.6v3.352h.64v.976h-.64V45h-1.184v-1.008h-2.608v-.704l2.352-3.624h1.44zm-2.496 3.352h1.312v-2.072l-1.312 2.072zm8.096-3.352h-2.624l-.544 2.888c.264-.144.64-.28 1.088-.28.56 0 .824.224.888.28a.792.792 0 0 1 .272.624.832.832 0 0 1-.312.672c-.192.152-.48.216-.76.216-.32 0-.584-.088-.808-.232a2.624 2.624 0 0 1-.512-.44l-.28 1.144c.672.52 1.272.584 1.776.584.544 0 1.128-.08 1.616-.56.248-.248.544-.688.544-1.376 0-.632-.248-1.048-.488-1.288-.296-.304-.76-.52-1.36-.52-.136 0-.304.016-.44.04l.144-.712h1.8v-1.04zm3.96-.12l1.32.136-1.408 1.752c.16-.056.328-.088.56-.088.672 0 1.088.272 1.32.512.192.2.464.584.464 1.232 0 .512-.16 1.056-.504 1.432-.488.528-1.168.6-1.64.6-.488 0-1.2-.048-1.728-.624-.352-.376-.464-.824-.464-1.296 0-.848.4-1.448.856-2.048l1.224-1.608zm.072 4.568a.92.92 0 0 0 .64-.24c.144-.136.28-.36.28-.704a.842.842 0 0 0-.28-.656.937.937 0 0 0-.64-.224c-.24 0-.464.056-.648.232-.104.096-.272.312-.272.68 0 .248.072.48.272.664a.934.934 0 0 0 .648.248zm3.376.728l1.144.28 3.16-5.456h-4.24v1.04h2.352l-2.416 4.136zm7.176.28c-.48 0-.984-.024-1.456-.448a1.515 1.515 0 0 1-.512-1.16c0-.456.2-.744.36-.912.176-.184.432-.328.664-.4a1.406 1.406 0 0 1-.488-.328c-.24-.248-.328-.52-.328-.848 0-.448.168-.768.392-.992.392-.4.904-.488 1.384-.488.464 0 .976.088 1.368.488.224.224.392.544.392.992 0 .328-.088.6-.328.848a1.406 1.406 0 0 1-.488.328c.232.072.488.216.664.4.16.168.36.456.36.912 0 .352-.104.792-.512 1.16-.472.424-.968.448-1.472.448zm.008-4.664a.683.683 0 0 0-.472.176.601.601 0 0 0-.2.456c0 .224.104.368.2.456.12.104.28.176.472.176a.65.65 0 0 0 .464-.176.59.59 0 0 0 .2-.456.625.625 0 0 0-.2-.464.71.71 0 0 0-.464-.168zm-.016 2.24a.721.721 0 0 0-.504.192.795.795 0 0 0-.208.528c0 .192.064.4.208.536a.775.775 0 0 0 .52.192.775.775 0 0 0 .52-.192c.12-.112.208-.312.208-.544a.708.708 0 0 0-.208-.52c-.128-.128-.328-.192-.536-.192zm5.608 2.424l-1.32-.136 1.408-1.744c-.184.056-.36.08-.536.08-.576 0-1.048-.2-1.344-.496-.288-.288-.464-.712-.464-1.288 0-.792.36-1.224.52-1.392.52-.544 1.248-.6 1.672-.6.84 0 1.32.28 1.6.536.264.248.544.688.544 1.352 0 .336-.08.728-.24 1.088-.136.296-.376.664-.624.992l-1.216 1.608zm-.072-4.568a.93.93 0 0 0-.64.24.88.88 0 0 0-.28.672c0 .336.12.552.272.688.168.152.408.224.648.224a.964.964 0 0 0 .648-.232c.128-.12.272-.336.272-.704a.842.842 0 0 0-.272-.648.918.918 0 0 0-.648-.24zm7.944 1.784c0 .912-.248 1.72-.768 2.232-.312.304-.776.552-1.432.552-.64 0-1.096-.24-1.416-.552-.52-.512-.768-1.32-.768-2.232 0-.92.248-1.736.768-2.24.32-.312.776-.552 1.416-.552.656 0 1.12.248 1.432.552.52.504.768 1.32.768 2.24zM70.952 40.6a.663.663 0 0 0-.496.2c-.392.384-.448 1.152-.448 1.528 0 .416.072 1.168.448 1.536.144.136.288.2.496.2a.663.663 0 0 0 .496-.2c.376-.368.448-1.12.448-1.536 0-.376-.056-1.144-.448-1.528a.663.663 0 0 0-.496-.2zm4.552 4.4h1.232v-5.336h-1.992v1.04h.76V45zm6.856-1.04h-1.84l.56-.536c.344-.328.624-.6.856-.92.256-.36.4-.704.4-1.176 0-.552-.208-.992-.496-1.28-.192-.184-.608-.504-1.384-.504-.76 0-1.216.28-1.472.552-.328.344-.512.872-.552 1.336h1.232c0-.208.08-.496.224-.656.104-.112.256-.192.488-.192.208 0 .384.056.488.152a.75.75 0 0 1 .208.528c0 .368-.2.712-.32.904-.168.256-.592.776-.872 1.088L78.28 45h4.08v-1.04zm2.872-2.696a.846.846 0 0 1 .192-.496.673.673 0 0 1 .48-.176c.2 0 .36.072.456.16a.582.582 0 0 1 .176.432.626.626 0 0 1-.2.48c-.176.144-.464.152-.536.152h-.072v.848h.096c.184 0 .464.016.656.168a.662.662 0 0 1 .232.512.767.767 0 0 1-.216.544c-.128.12-.328.184-.536.184-.256 0-.464-.088-.592-.216a1.02 1.02 0 0 1-.256-.6H83.88c.056.536.288 1.008.592 1.32.472.472 1.04.552 1.56.552.432 0 .952-.048 1.408-.464.376-.344.536-.808.536-1.216 0-.288-.088-.624-.248-.84a1.313 1.313 0 0 0-.608-.432.993.993 0 0 0 .4-.336c.168-.232.216-.464.216-.728 0-.52-.184-.872-.408-1.088-.272-.272-.744-.472-1.4-.472-.44 0-.96.096-1.352.504-.28.288-.48.76-.528 1.208h1.184zm8-1.6v3.352h.64v.976h-.64V45h-1.184v-1.008H89.44v-.704l2.352-3.624h1.44zm-2.496 3.352h1.312v-2.072l-1.312 2.072zm8.096-3.352h-2.624l-.544 2.888c.264-.144.64-.28 1.088-.28.56 0 .824.224.888.28a.792.792 0 0 1 .272.624.832.832 0 0 1-.312.672c-.192.152-.48.216-.76.216-.32 0-.584-.088-.808-.232a2.624 2.624 0 0 1-.512-.44l-.28 1.144c.672.52 1.272.584 1.776.584.544 0 1.128-.08 1.616-.56.248-.248.544-.688.544-1.376 0-.632-.248-1.048-.488-1.288-.296-.304-.76-.52-1.36-.52-.136 0-.304.016-.44.04l.144-.712h1.8v-1.04zm3.96-.12l1.32.136-1.408 1.752c.16-.056.328-.088.56-.088.672 0 1.088.272 1.32.512.192.2.464.584.464 1.232 0 .512-.16 1.056-.504 1.432-.488.528-1.168.6-1.64.6-.488 0-1.2-.048-1.728-.624-.352-.376-.464-.824-.464-1.296 0-.848.4-1.448.856-2.048l1.224-1.608zm.072 4.568a.92.92 0 0 0 .64-.24c.144-.136.28-.36.28-.704a.842.842 0 0 0-.28-.656.937.937 0 0 0-.64-.224c-.24 0-.464.056-.648.232-.104.096-.272.312-.272.68 0 .248.072.48.272.664a.934.934 0 0 0 .648.248zM121.232 45h1.232v-5.336h-1.992v1.04h.76V45zm6.856-1.04h-1.84l.56-.536c.344-.328.624-.6.856-.92.256-.36.4-.704.4-1.176 0-.552-.208-.992-.496-1.28-.192-.184-.608-.504-1.384-.504-.76 0-1.216.28-1.472.552-.328.344-.512.872-.552 1.336h1.232c0-.208.08-.496.224-.656.104-.112.256-.192.488-.192.208 0 .384.056.488.152a.75.75 0 0 1 .208.528c0 .368-.2.712-.32.904-.168.256-.592.776-.872 1.088l-1.6 1.744h4.08v-1.04zm2.872-2.696a.846.846 0 0 1 .192-.496.673.673 0 0 1 .48-.176c.2 0 .36.072.456.16a.582.582 0 0 1 .176.432.626.626 0 0 1-.2.48c-.176.144-.464.152-.536.152h-.072v.848h.096c.184 0 .464.016.656.168a.662.662 0 0 1 .232.512.767.767 0 0 1-.216.544c-.128.12-.328.184-.536.184-.256 0-.464-.088-.592-.216a1.02 1.02 0 0 1-.256-.6h-1.232c.056.536.288 1.008.592 1.32.472.472 1.04.552 1.56.552.432 0 .952-.048 1.408-.464.376-.344.536-.808.536-1.216 0-.288-.088-.624-.248-.84a1.313 1.313 0 0 0-.608-.432.993.993 0 0 0 .4-.336c.168-.232.216-.464.216-.728 0-.52-.184-.872-.408-1.088-.272-.272-.744-.472-1.4-.472-.44 0-.96.096-1.352.504-.28.288-.48.76-.528 1.208h1.184zm8-1.6v3.352h.64v.976h-.64V45h-1.184v-1.008h-2.608v-.704l2.352-3.624h1.44zm-2.496 3.352h1.312v-2.072l-1.312 2.072z" mask="url(#c)"/>
        <path fill="#EEE" d="M16 52h128v16H16z" mask="url(#c)"/>
        <path fill="#666" d="M0 76h160v16H0z" mask="url(#c)"/>
        <g fill="#2D2D2D" mask="url(#c)">
            <path d="M16 52h1v16h-1zM18 52h1v16h-1zM21 52h2v16h-2zM25 52h1v16h-1zM27 52h1v16h-1zM29 52h2v16h-2zM32 52h1v16h-1zM34 52h1v16h-1zM36 52h2v16h-2zM39 52h1v16h-1zM41 52h3v16h-3zM45 52h2v16h-2zM48 52h1v16h-1zM50 52h1v16h-1zM52 52h4v16h-4zM57 52h2v16h-2zM61 52h2v16h-2zM64 52h2v16h-2zM67 52h1v16h-1zM70 52h1v16h-1zM74 52h1v16h-1zM76 52h2v16h-2zM81 52h3v16h-3zM86 52h1v16h-1zM90 52h1v16h-1zM92 52h4v16h-4zM98 52h2v16h-2zM102 52h1v16h-1zM105 52h1v16h-1zM107 52h1v16h-1zM109 52h1v16h-1zM111 52h3v16h-3zM116 52h2v16h-2zM119 52h1v16h-1zM122 52h1v16h-1zM125 52h4v16h-4zM130 52h1v16h-1zM132 52h2v16h-2zM135 52h1v16h-1zM138 52h1v16h-1zM140 52h2v16h-2zM143 52h1v16h-1z"/>
        </g>
        <mask id="e" fill="#fff">
            <use xlink:href="#d"/>
        </mask>
        <rect width="159" height="99" x=".5" y=".5" stroke="#DDD" rx="4"/>
        <path stroke="#D01345" stroke-width="2" d="M17 35h92v14H17zM117 35h26v14h-26z" mask="url(#e)"/>
    </g>
</svg>
